<?xml version="1.0" encoding="UTF-8" standalone="no"?>
<!-- Created with Inkscape (http://www.inkscape.org/) -->

<svg
   xmlns:dc="http://purl.org/dc/elements/1.1/"
   xmlns:cc="http://creativecommons.org/ns#"
   xmlns:rdf="http://www.w3.org/1999/02/22-rdf-syntax-ns#"
   xmlns:svg="http://www.w3.org/2000/svg"
   xmlns="http://www.w3.org/2000/svg"
   xmlns:sodipodi="http://sodipodi.sourceforge.net/DTD/sodipodi-0.dtd"
   xmlns:inkscape="http://www.inkscape.org/namespaces/inkscape"
   width="512"
   height="512"
   viewBox="0 0 135.46666 135.46666"
   version="1.1"
   id="svg8"
   inkscape:version="0.92.5 (0.92.5+68)"
   sodipodi:docname="1_1.svg"
   inkscape:export-filename="/home/kapil/inkscape designs/WEATHER ICONS/1.svg.png"
   inkscape:export-xdpi="90"
   inkscape:export-ydpi="90">
  <defs
     id="defs2" />
  <sodipodi:namedview
     id="base"
     pagecolor="#ffffff"
     bordercolor="#666666"
     borderopacity="1.0"
     inkscape:pageopacity="0.0"
     inkscape:pageshadow="2"
     inkscape:zoom="0.98994948"
     inkscape:cx="244.76631"
     inkscape:cy="327.61484"
     inkscape:document-units="px"
     inkscape:current-layer="layer1"
     showgrid="false"
     showborder="true"
     units="px"
     inkscape:window-width="1920"
     inkscape:window-height="966"
     inkscape:window-x="0"
     inkscape:window-y="27"
     inkscape:window-maximized="1"
     fit-margin-top="0"
     fit-margin-left="0"
     fit-margin-right="0"
     fit-margin-bottom="0" />
  <metadata
     id="metadata5">
    <rdf:RDF>
      <cc:Work
         rdf:about="">
        <dc:format>image/svg+xml</dc:format>
        <dc:type
           rdf:resource="http://purl.org/dc/dcmitype/StillImage" />
        <dc:title></dc:title>
      </cc:Work>
    </rdf:RDF>
  </metadata>
  <g
     inkscape:label="Layer 1"
     inkscape:groupmode="layer"
     id="layer1"
     transform="translate(39.410397,-147.76791)">
    <g
       id="g974"
       transform="matrix(0.46790544,0,0,0.50308958,132.50445,163.68552)">
      <circle
         r="71.815475"
         cy="93.648796"
         cx="-294.82144"
         id="path894"
         style="fill:#ff0000;fill-rule:evenodd;stroke-width:0.26458332" />
      <path
         id="circle896"
         d="m -232.83333,-31.8394 a 71.815475,71.815475 0 0 0 -69.51617,54.149666 71.815475,71.815475 0 0 0 -64.28754,71.338281 71.815475,71.815475 0 0 0 71.81575,71.815773 71.815475,71.815475 0 0 0 25.77931,-4.79971 71.815475,71.815475 0 0 0 45.27993,16.13907 71.815475,71.815475 0 0 0 54.06853,-24.62847 71.815475,71.815475 0 0 0 19.25878,2.70577 71.815475,71.815475 0 0 0 71.815767,-71.815766 71.815475,71.815475 0 0 0 -71.815767,-71.815255 71.815475,71.815475 0 0 0 -15.8409,1.860868 71.815475,71.815475 0 0 0 -66.55769,-44.950227 z"
         style="fill:#00aeff;fill-opacity:1;fill-rule:evenodd;stroke-width:0.26458332"
         inkscape:connector-curvature="0" />
      <path
         inkscape:connector-curvature="0"
         id="circle904"
         d="m -346.3792,43.466048 a 71.815475,71.815475 0 0 0 -3.5e-4,101.562452 71.815475,71.815475 0 0 0 101.56282,2e-5 71.815475,71.815475 0 0 0 12.1319,-16.22958 71.815475,71.815475 0 0 1 -90.70913,-8.89365 71.815475,71.815475 0 0 1 -12.13153,-85.333638 71.815475,71.815475 0 0 0 -10.85371,8.894396 z"
         style="fill:#0086ff;fill-opacity:1;fill-rule:evenodd;stroke-width:0.26458332" />
      <path
         id="path910"
         transform="scale(0.26458333)"
         d="M -649.82617,490.43359 A 204.55848,137.68741 0 0 1 -850.4375,601.34961 204.55848,137.68741 0 0 1 -1029.625,529.63672 c -3.0663,4.9856 -21.0664,-0.75391 -21.0664,-0.75391 a 204.55848,137.68741 0 0 0 204.55859,137.6875 204.55848,137.68741 0 0 0 204.55859,-137.6875 204.55848,137.68741 0 0 0 -8.25195,-38.44922 z"
         style="opacity:1;fill:#0086ff;fill-opacity:1;fill-rule:evenodd;stroke-width:0.61830145"
         inkscape:connector-curvature="0" />
      <ellipse
         ry="8.5512743"
         rx="144.39734"
         cy="229.07848"
         cx="-222.9902"
         id="path931"
         style="opacity:0.51000001;fill:#c8c4b7;fill-rule:evenodd;stroke-width:0.20685609" />
    </g>
  </g>
</svg>
