<?xml version="1.0" encoding="UTF-8" standalone="no"?>
<!-- Created with Inkscape (http://www.inkscape.org/) -->

<svg
   xmlns:dc="http://purl.org/dc/elements/1.1/"
   xmlns:cc="http://creativecommons.org/ns#"
   xmlns:rdf="http://www.w3.org/1999/02/22-rdf-syntax-ns#"
   xmlns:svg="http://www.w3.org/2000/svg"
   xmlns="http://www.w3.org/2000/svg"
   xmlns:sodipodi="http://sodipodi.sourceforge.net/DTD/sodipodi-0.dtd"
   xmlns:inkscape="http://www.inkscape.org/namespaces/inkscape"
   width="1091.6062"
   height="1018.4661"
   viewBox="0 0 288.8208 269.46915"
   version="1.1"
   id="svg8"
   inkscape:version="0.92.5 (0.92.5+68)"
   sodipodi:docname="basic_2.svg"
   inkscape:export-filename="/home/kapil/inkscape designs/WEATHER ICONS/1.svg.png"
   inkscape:export-xdpi="90"
   inkscape:export-ydpi="90">
  <defs
     id="defs2" />
  <sodipodi:namedview
     id="base"
     pagecolor="#ffffff"
     bordercolor="#666666"
     borderopacity="1.0"
     inkscape:pageopacity="0.0"
     inkscape:pageshadow="2"
     inkscape:zoom="0.24748737"
     inkscape:cx="77.625831"
     inkscape:cy="535.8325"
     inkscape:document-units="px"
     inkscape:current-layer="layer1"
     showgrid="false"
     showborder="false"
     units="px"
     inkscape:window-width="1920"
     inkscape:window-height="966"
     inkscape:window-x="0"
     inkscape:window-y="27"
     inkscape:window-maximized="1"
     fit-margin-top="0"
     fit-margin-left="0"
     fit-margin-right="0"
     fit-margin-bottom="0" />
  <metadata
     id="metadata5">
    <rdf:RDF>
      <cc:Work
         rdf:about="">
        <dc:format>image/svg+xml</dc:format>
        <dc:type
           rdf:resource="http://purl.org/dc/dcmitype/StillImage" />
        <dc:title></dc:title>
      </cc:Work>
    </rdf:RDF>
  </metadata>
  <g
     inkscape:label="Layer 1"
     inkscape:groupmode="layer"
     id="layer1"
     transform="translate(39.410397,-13.765421)">
    <g
       id="g1024">
      <circle
         r="71.815475"
         cy="139.25362"
         cx="33.18182"
         id="path894"
         style="fill:#ff0000;fill-rule:evenodd;stroke-width:0.26458332" />
      <path
         id="circle896"
         d="m 95.16993,13.765421 a 71.815475,71.815475 0 0 0 -69.51617,54.149666 71.815475,71.815475 0 0 0 -64.28754,71.338283 71.815475,71.815475 0 0 0 71.81575,71.81577 71.815475,71.815475 0 0 0 25.77931,-4.79971 71.815475,71.815475 0 0 0 45.27993,16.13907 71.815475,71.815475 0 0 0 54.06853,-24.62847 71.815475,71.815475 0 0 0 19.25878,2.70577 71.815475,71.815475 0 0 0 71.81577,-71.81577 71.815475,71.815475 0 0 0 -71.81577,-71.81525 71.815475,71.815475 0 0 0 -15.8409,1.860868 71.815475,71.815475 0 0 0 -66.55769,-44.950227 z"
         style="fill:#00aeff;fill-opacity:1;fill-rule:evenodd;stroke-width:0.26458332"
         inkscape:connector-curvature="0" />
      <path
         inkscape:connector-curvature="0"
         id="circle904"
         d="m -18.37594,89.070869 a 71.815475,71.815475 0 0 0 -3.5e-4,101.562451 71.815475,71.815475 0 0 0 101.56282,2e-5 71.815475,71.815475 0 0 0 12.1319,-16.22958 A 71.815475,71.815475 0 0 1 4.6093,165.51011 71.815475,71.815475 0 0 1 -7.52223,80.176473 71.815475,71.815475 0 0 0 -18.37594,89.070869 Z"
         style="fill:#0086ff;fill-opacity:1;fill-rule:evenodd;stroke-width:0.26458332" />
      <path
         id="path910"
         d="M 156.07009,175.36537 A 54.122764,36.429793 0 0 1 102.99167,204.7119 54.122764,36.429793 0 0 1 55.581649,185.73787 c -0.811292,1.3191 -5.573818,-0.19947 -5.573818,-0.19947 a 54.122764,36.429793 0 0 0 54.122789,36.42981 54.122764,36.429793 0 0 0 54.1228,-36.42981 54.122764,36.429793 0 0 0 -2.18333,-10.17303 z"
         style="opacity:1;fill:#0086ff;fill-opacity:1;fill-rule:evenodd;stroke-width:0.16359226"
         inkscape:connector-curvature="0" />
    </g>
    <ellipse
       style="opacity:0.51000001;fill:#c8c4b7;fill-rule:evenodd;stroke-width:0.20685609"
       id="path931"
       cx="105.01305"
       cy="274.68329"
       rx="144.39734"
       ry="8.5512743" />
    <circle
       style="fill:#ff0000;fill-rule:evenodd;stroke-width:0.26458332"
       id="path1026"
       cx="-376.16998"
       cy="-40.696083"
       r="66.282845" />
    <ellipse
       cy="-40.696083"
       cx="-376.16998"
       id="circle1028"
       style="fill:#ff0000;fill-rule:evenodd;stroke-width:0.18532825"
       rx="49.177597"
       ry="43.832207" />
  </g>
</svg>
