<?xml version="1.0" encoding="UTF-8" standalone="no"?>
<!-- Created with Inkscape (http://www.inkscape.org/) -->

<svg
   xmlns:dc="http://purl.org/dc/elements/1.1/"
   xmlns:cc="http://creativecommons.org/ns#"
   xmlns:rdf="http://www.w3.org/1999/02/22-rdf-syntax-ns#"
   xmlns:svg="http://www.w3.org/2000/svg"
   xmlns="http://www.w3.org/2000/svg"
   xmlns:sodipodi="http://sodipodi.sourceforge.net/DTD/sodipodi-0.dtd"
   xmlns:inkscape="http://www.inkscape.org/namespaces/inkscape"
   width="512"
   height="512"
   viewBox="0 0 135.46666 135.46667"
   version="1.1"
   id="svg1178"
   inkscape:version="0.92.5 (0.92.5+68)"
   sodipodi:docname="pirelli.svg">
  <defs
     id="defs1172" />
  <sodipodi:namedview
     id="base"
     pagecolor="#ffffff"
     bordercolor="#666666"
     borderopacity="1.0"
     inkscape:pageopacity="0.0"
     inkscape:pageshadow="2"
     inkscape:zoom="1.4142136"
     inkscape:cx="-59.048603"
     inkscape:cy="165.30303"
     inkscape:document-units="px"
     inkscape:current-layer="layer1"
     showgrid="false"
     showborder="false"
     units="px"
     inkscape:object-paths="false"
     inkscape:window-width="1920"
     inkscape:window-height="966"
     inkscape:window-x="0"
     inkscape:window-y="27"
     inkscape:window-maximized="1"
     inkscape:snap-intersection-paths="true" />
  <metadata
     id="metadata1175">
    <rdf:RDF>
      <cc:Work
         rdf:about="">
        <dc:format>image/svg+xml</dc:format>
        <dc:type
           rdf:resource="http://purl.org/dc/dcmitype/StillImage" />
        <dc:title></dc:title>
      </cc:Work>
    </rdf:RDF>
  </metadata>
  <g
     inkscape:label="Layer 1"
     inkscape:groupmode="layer"
     id="layer1"
     transform="translate(0,-161.53331)">
    <g
       aria-label="P
"
       transform="scale(0.59575033,1.6785555)"
       style="font-style:normal;font-weight:normal;font-size:17.76471138px;line-height:1.25;font-family:sans-serif;letter-spacing:0px;word-spacing:0px;fill:#000000;fill-opacity:1;stroke:none;stroke-width:0.44411778"
       id="text1725" />
    <text
       xml:space="preserve"
       style="font-style:normal;font-weight:normal;font-size:10.58333302px;line-height:1.25;font-family:sans-serif;letter-spacing:0px;word-spacing:0px;fill:#000000;fill-opacity:1;stroke:none;stroke-width:0.26458332"
       x="-53.181248"
       y="131.63539"
       id="text1733"><tspan
         sodipodi:role="line"
         id="tspan1731"
         x="-53.181248"
         y="140.99916"
         style="stroke-width:0.26458332"></tspan></text>
    <g
       id="g1774"
       style="fill:#ffff00;stroke:#ffff00"
       transform="translate(-2.0579753,81.256741)">
      <g
         id="text1737"
         style="font-style:normal;font-weight:normal;font-size:10.85971069px;line-height:1.25;font-family:sans-serif;letter-spacing:0px;word-spacing:0px;fill:#ffff00;fill-opacity:1;stroke:#ffff00;stroke-width:0.27149275"
         transform="scale(1.0261144,0.9745502)"
         aria-label="IRELLI">
        <path
           id="path1749"
           style="fill:#ffff00;stroke:#ffff00;stroke-width:0.27149275"
           d="m -51.331235,132.58607 h 1.071123 v 7.91677 h -1.071123 z"
           inkscape:connector-curvature="0" />
        <path
           id="path1751"
           style="fill:#ffff00;stroke:#ffff00;stroke-width:0.27149275"
           d="m -44.374233,136.79102 q 0.344668,0.11666 0.668126,0.49845 0.328761,0.38178 0.657522,1.04991 l 1.087032,2.16346 h -1.150663 l -1.012795,-2.0309 q -0.392392,-0.79538 -0.763574,-1.05521 -0.365879,-0.25983 -1.00219,-0.25983 h -1.16657 v 3.34594 h -1.071124 v -7.91677 h 2.417982 q 1.357464,0 2.025591,0.56737 0.668127,0.56738 0.668127,1.71274 0,0.74767 -0.349972,1.24081 -0.344668,0.49314 -1.007492,0.68403 z m -2.683112,-3.32472 v 2.81037 h 1.346858 q 0.774179,0 1.166571,-0.35527 0.397694,-0.36058 0.397694,-1.05522 0,-0.69464 -0.397694,-1.04461 -0.392392,-0.35527 -1.166571,-0.35527 z"
           inkscape:connector-curvature="0" />
        <path
           id="path1753"
           style="fill:#ffff00;stroke:#ffff00;stroke-width:0.27149275"
           d="m -40.577576,132.58607 h 5.005648 v 0.90144 h -3.934524 v 2.34374 h 3.770143 v 0.90144 h -3.770143 v 2.86871 h 4.02997 v 0.90144 h -5.101094 z"
           inkscape:connector-curvature="0" />
        <path
           id="path1755"
           style="fill:#ffff00;stroke:#ffff00;stroke-width:0.27149275"
           d="m -33.705415,132.58607 h 1.071124 v 7.01533 h 3.854985 v 0.90144 h -4.926109 z"
           inkscape:connector-curvature="0" />
        <path
           id="path1757"
           style="fill:#ffff00;stroke:#ffff00;stroke-width:0.27149275"
           d="m -27.660459,132.58607 h 1.071124 v 7.01533 h 3.854985 v 0.90144 h -4.926109 z"
           inkscape:connector-curvature="0" />
        <path
           id="path1759"
           style="fill:#ffff00;stroke:#ffff00;stroke-width:0.27149275"
           d="m -21.615503,132.58607 h 1.071124 v 7.91677 h -1.071124 z"
           inkscape:connector-curvature="0" />
      </g>
      <g
         transform="translate(0.396875,0.13229167)"
         id="text1747"
         style="font-style:normal;font-weight:normal;font-size:10.58333302px;line-height:1.25;font-family:sans-serif;letter-spacing:0px;word-spacing:0px;fill:#ffff00;fill-opacity:1;stroke:#ffff00;stroke-width:1;stroke-miterlimit:4;stroke-dasharray:none;stroke-opacity:1"
         aria-label="P">
        <path
           sodipodi:nodetypes="ccscscsccscscscccc"
           inkscape:connector-curvature="0"
           id="path1762"
           style="fill:#ffff00;stroke:#ffff00;stroke-width:1;stroke-miterlimit:4;stroke-dasharray:none;stroke-opacity:1"
           d="m -55.7289,124.44719 v 2.89905 h 29.358415 c 0.485759,0 0.861274,-0.12575 1.126547,-0.37724 0.265272,-0.25149 0.397908,-0.60978 0.397908,-1.07487 0,-0.46164 -0.132636,-0.81821 -0.397908,-1.0697 -0.265273,-0.25149 -0.640788,-0.37724 -1.126547,-0.37724 z m -1.043864,-0.85783 h 30.402279 c 0.864719,0 3.766523,0.19637 4.207495,0.58911 0.444417,0.3893 0.666626,0.96119 0.666626,1.71566 0,0.76137 -0.222209,1.3367 -0.666626,1.726 -0.440972,0.38929 -3.342776,0.58394 -4.207495,0.58394 H -55.7289 v 8.78912 h -1.043864 z" />
      </g>
    </g>
    <path
       style="fill:#ffff00;fill-rule:evenodd;stroke-width:0.24647041"
       d="m -109.24097,230.96925 h 36.276393 v 3.70417 h -36.276393 z"
       id="rect1776"
       inkscape:connector-curvature="0" />
    <path
       style="fill:#ffff00;fill-rule:evenodd;stroke-width:0.24647041"
       d="m -15.343334,209.82823 h 36.276398 v 3.70417 h -36.276398 z"
       id="rect1814" />
  </g>
</svg>
