<?xml version="1.0" encoding="UTF-8" standalone="no"?>
<!-- Created with Inkscape (http://www.inkscape.org/) -->

<svg
   xmlns:dc="http://purl.org/dc/elements/1.1/"
   xmlns:cc="http://creativecommons.org/ns#"
   xmlns:rdf="http://www.w3.org/1999/02/22-rdf-syntax-ns#"
   xmlns:svg="http://www.w3.org/2000/svg"
   xmlns="http://www.w3.org/2000/svg"
   xmlns:sodipodi="http://sodipodi.sourceforge.net/DTD/sodipodi-0.dtd"
   xmlns:inkscape="http://www.inkscape.org/namespaces/inkscape"
   width="210mm"
   height="297mm"
   viewBox="0 0 210 297"
   version="1.1"
   id="svg4625"
   inkscape:export-filename="/home/kapil/inkscape designs/cloud.png"
   inkscape:export-xdpi="96"
   inkscape:export-ydpi="96"
   inkscape:version="0.92.5 (0.92.5+68)"
   sodipodi:docname="cloud.svg">
  <defs
     id="defs4619" />
  <sodipodi:namedview
     id="base"
     pagecolor="#ffffff"
     bordercolor="#666666"
     borderopacity="1.0"
     inkscape:pageopacity="0.0"
     inkscape:pageshadow="2"
     inkscape:zoom="0.35355339"
     inkscape:cx="3071.3817"
     inkscape:cy="-10047.291"
     inkscape:document-units="mm"
     inkscape:current-layer="layer1"
     showgrid="false"
     showborder="false"
     inkscape:object-paths="true"
     inkscape:snap-global="true"
     inkscape:snap-smooth-nodes="true"
     inkscape:snap-nodes="false"
     inkscape:window-width="1920"
     inkscape:window-height="966"
     inkscape:window-x="0"
     inkscape:window-y="27"
     inkscape:window-maximized="1" />
  <metadata
     id="metadata4622">
    <rdf:RDF>
      <cc:Work
         rdf:about="">
        <dc:format>image/svg+xml</dc:format>
        <dc:type
           rdf:resource="http://purl.org/dc/dcmitype/StillImage" />
        <dc:title></dc:title>
      </cc:Work>
    </rdf:RDF>
  </metadata>
  <g
     inkscape:label="Layer 1"
     inkscape:groupmode="layer"
     id="layer1">
    <rect
       style="opacity:0.838;fill:#ffff00;fill-rule:evenodd;stroke-width:0.26458332"
       id="rect5874"
       width="475.95355"
       height="414.58847"
       x="670.96564"
       y="2765.0735"
       ry="0" />
    <path
       id="path6033"
       d="m 903.23212,2896.9586 a 53.974997,51.858333 60 0 0 -0.76534,0.044 53.974997,51.858333 60 0 0 -0.76274,-0.011 53.974997,51.858333 60 0 0 -1.83348,0.1614 53.974997,51.858333 60 0 0 -2.60811,0.2288 53.974997,51.858333 60 0 0 -2.56108,0.4149 53.974997,51.858333 60 0 0 -2.56368,0.4948 53.974997,51.858333 60 0 0 -2.49545,0.6741 53.974997,51.858333 60 0 0 -2.49597,0.7562 53.974997,51.858333 60 0 0 -2.41226,0.9289 53.974997,51.858333 60 0 0 -2.39366,1.0057 53.974997,51.858333 60 0 0 -3.91705,1.9974 53.974997,51.858333 60 0 0 -0.0263,0.014 53.974997,51.858333 60 0 0 -23.82854,32.0635 53.974997,51.858333 60 0 0 -0.0108,0.037 53.974997,51.858333 30 0 0 -12.93514,-1.2171 53.974997,51.858333 30 0 0 -0.78134,0.062 53.974997,51.858333 29.999999 0 0 -2.63602,0.2071 53.974997,51.858333 30 0 0 -2.65668,0.2858 53.974997,51.858333 29.999999 0 0 -2.59572,0.4651 53.974997,51.858333 30 0 0 -2.60757,0.5461 53.974997,51.858333 29.999999 0 0 -2.52183,0.7178 53.974997,51.858333 30 0 0 -2.53111,0.8012 53.974997,51.858333 29.999999 0 0 -2.42464,0.962 53.974997,51.858333 30 0 0 -2.43242,1.0496 53.974997,51.858333 29.999999 0 0 -2.30735,1.1994 53.974997,51.858333 30 0 0 -2.2991,1.2827 53.974997,51.858333 29.999999 0 0 -2.17556,1.4298 53.974997,51.858333 30 0 0 -2.14199,1.5007 53.974997,51.858333 29.999999 0 0 -2.00816,1.6378 53.974997,51.858333 30 0 0 -1.97662,1.7134 53.974997,51.858333 29.999999 0 0 -1.81695,1.8243 53.974997,51.858333 30 0 0 -1.79213,1.9119 53.974997,51.858333 29.999999 0 0 -1.61694,2.0016 53.974997,51.858333 30 0 0 -1.57666,2.0762 53.974997,51.858333 29.999999 0 0 -2.39778,3.6954 53.974997,51.858333 30 0 0 -0.0104,0.016 53.974997,51.858333 30 0 0 -2.3549,4.6183 53.974997,51.858333 29.999999 0 0 -1.86446,4.8421 53.974997,51.858333 30 0 0 -2.48925,15.3747 53.974997,51.858333 29.999999 0 0 0.12607,2.8406 c -0.055,-0.3617 -0.10644,-0.7237 -0.15349,-1.0851 -0.28069,2.1585 0.0341,10.6466 0.5633,12.822 6.34217,26.0694 20.76871,48.4291 46.56667,48.4291 h 141.81666 c 25.79795,0 46.07055,-21.5993 46.07055,-48.4291 0,-1.8484 -0.1244,-8.0769 -0.325,-11.4319 a 51.858333,53.974997 23.85577 0 0 -0.049,-0.7839 c -0.028,-0.3757 -0.058,-0.7014 -0.088,-0.9369 -0,0.027 -0.01,0.053 -0.011,0.08 a 51.858333,53.974997 23.85577 0 0 -18.2258,-35.4865 51.858333,53.974997 23.85577 0 0 -5e-4,0 51.85833,53.974994 23.855769 0 0 -4.1476,-3.1263 51.858333,53.974997 23.85577 0 0 -5e-4,0 51.85833,53.974994 23.855769 0 0 -4.44262,-2.6757 51.858333,53.974997 23.85577 0 0 -5e-4,0 51.85833,53.974994 23.855769 0 0 -3.30007,-1.6071 51.85833,53.974994 23.855769 0 0 -4.84362,-1.8476 51.858333,53.974997 23.85577 0 0 -5.3e-4,0 51.858333,53.974997 23.85577 0 0 -13.82551,-2.3976 51.858333,53.974997 23.85577 0 0 -0.7674,0.015 51.85833,53.974994 23.855769 0 0 -2.5895,0.051 51.858333,53.974997 23.85577 0 0 -2.6267,0.1296 51.85833,53.974994 23.855769 0 0 -2.58175,0.3162 51.858333,53.974997 23.85577 0 0 -2.60398,0.3979 51.85833,53.974994 23.855769 0 0 -2.54818,0.5795 51.858333,53.974997 23.85577 0 0 -2.55902,0.6614 51.85833,53.974994 23.855769 0 0 -2.49751,0.8401 51.858333,53.974997 23.85577 0 0 -1.68053,0.5649 53.974997,51.858333 60 0 0 -0.48318,-2.2106 53.974997,51.858333 60 0 0 -0.66352,-2.8811 53.974997,51.858333 60 0 0 -0.75499,-2.3849 53.974997,51.858333 60 0 0 -0.9095,-2.7176 53.974997,51.858333 60 0 0 -1.01026,-2.3698 53.974997,51.858333 60 0 0 -1.18031,-2.6485 53.974997,51.858333 60 0 0 -1.55752,-2.9462 53.974997,51.858333 60 0 0 -0.0269,-0.05 53.974997,51.858333 60 0 0 -14.05496,-16.1562 53.974997,51.858333 60 0 0 -4.3811,-3.0798 53.974997,51.858333 60 0 0 -9.51106,-4.7797 53.974997,51.858333 60 0 0 -5.03327,-1.652 53.974997,51.858333 60 0 0 -14.08287,-1.8558 z m 50.02122,47.0122 a 54.620006,52.709809 38.362932 0 1 0.0124,0.011 46.566661,44.74052 60 0 1 0.16174,0.2593 46.566661,44.74052 60 0 0 -0.17415,-0.2702 z m -8.7426,5.6322 a 51.858333,53.974997 23.85577 0 0 -0.27027,0.1939 51.85833,53.974994 23.855769 0 1 0.27027,-0.1939 z m -4.00648,3.271 a 51.85833,53.974994 23.855769 0 0 -0.0791,0.074 51.858333,53.974997 23.85577 0 0 -0.39999,0.3508 51.85833,53.974994 23.855769 0 1 0.47905,-0.4244 z m -3.71554,3.6677 a 51.85833,53.974994 23.855769 0 0 -0.17466,0.1974 51.858333,53.974997 23.85577 0 0 -0.44442,0.4733 51.85833,53.974994 23.855769 0 1 0.61908,-0.6707 z m -3.35431,4.0013 a 51.85833,53.974994 23.855769 0 0 -0.24702,0.3395 51.858333,53.974997 23.85577 0 0 -0.48265,0.6257 51.85833,53.974994 23.855769 0 1 0.72967,-0.9652 z m -42.17882,1.7997 a 53.974997,51.858333 29.999999 0 1 0.4563,0.7308 46.566661,44.74052 29.999999 0 0 -0.005,0 53.974997,51.858333 29.999999 0 0 -0.45112,-0.7268 z m 39.21104,2.5008 a 51.85833,53.974994 23.855769 0 0 -0.29403,0.4985 51.858333,53.974997 23.85577 0 0 -0.4961,0.7908 51.85833,53.974994 23.855769 0 1 0.79013,-1.2893 z m -2.72955,4.8834 a 51.85833,53.974994 23.855769 0 0 -0.98859,2.0442 51.85833,53.974994 23.855769 0 0 -1.93733,5.035 51.85833,53.974994 23.855769 0 0 -2.37919,10.4939 51.85833,53.974994 23.855769 0 1 2.37919,-10.4939 51.85833,53.974994 23.855769 0 1 1.93683,-5.035 51.85833,53.974994 23.855769 0 1 0.98909,-2.0442 z m -5.62086,28.2824 a 51.85833,53.974994 23.855769 0 0 0.29559,3.0562 44.740517,46.566658 23.855769 0 0 -5e-4,0 51.85833,53.974994 23.855769 0 1 -0.29509,-3.0578 z m 88.88608,9.8637 a 51.858333,53.974997 23.85577 0 1 0.05,0.1238 44.740517,46.566658 23.855769 0 1 -1.2573,12.6299 c -0.021,0.022 -0.042,0.044 -0.062,0.067 a 44.740517,46.566658 23.855769 0 0 1.2697,-12.8204 z m -173.49123,26.1278 a 46.566661,44.74052 29.999999 0 0 0.79013,0.5594 c 0.13615,0 0.27178,0.01 0.40825,0.01 -0.13708,0 -0.27347,-0.01 -0.41032,-0.01 a 46.566661,44.74052 29.999999 0 1 -0.75861,-0.4876 53.974997,51.858333 30 0 1 -0.0294,-0.075 z"
       style="opacity:0;fill:#241c1c;fill-rule:evenodd;stroke:#ffffff;stroke-width:10;stroke-miterlimit:4;stroke-dasharray:none"
       inkscape:connector-curvature="0" />
    <g
       id="g5888"
       transform="translate(360.24956,9.1654217)">
      <path
         transform="scale(0.26458333)"
         id="ellipse5734"
         d="m 2331.9434,11073.902 a 196,203.99999 23.85577 0 0 -191.1973,123.348 196,203.99999 23.85577 0 0 -17.8477,85.895 196,203.99999 23.85577 0 1 233.6075,-61.198 196,203.99999 23.85577 0 1 114.5957,179.946 196,203.99999 23.85577 0 0 28.1543,-46.104 196,203.99999 23.85577 0 0 -96.75,-265.842 196,203.99999 23.85577 0 0 -70.5625,-16.045 z"
         style="opacity:0.575;fill:#241c1c;fill-rule:evenodd;stroke-width:0.99999994"
         inkscape:connector-curvature="0" />
      <path
         transform="scale(0.26458333)"
         id="path5709"
         d="m 1819.0098,11056.576 a 203.99999,196 30 0 0 -163.6797,95.944 203.99999,196 30 0 0 78.6699,271.74 203.99999,196 30 0 0 78.8027,26.383 203.99999,196 30 0 1 -1.9082,-194.887 203.99999,196 30 0 1 195.8672,-94.125 203.99999,196 30 0 0 -76.7617,-76.854 203.99999,196 30 0 0 -110.9902,-28.201 z"
         style="opacity:0.575;fill:#241c1c;fill-rule:evenodd;stroke-width:0.99999994"
         inkscape:connector-curvature="0" />
      <path
         transform="scale(0.26458333)"
         id="ellipse5728"
         d="m 2051.8652,10914.494 a 203.99999,196 60 0 0 -93.8652,25.356 203.99999,196 60 0 0 -95.541,183.857 c 0.022,-0.194 0.038,-0.381 0.061,-0.576 l 28.9903,-2.83 c 0,0 2.1213,-3.535 18.3847,0 l 16.2637,3.537 -1.123,4.613 a 206.43782,199.21818 38.362932 0 1 71.7089,-70.601 206.43782,199.21818 38.362932 0 1 260.6446,52.045 203.99999,196 60 0 0 -27.6465,-91.375 203.99999,196 60 0 0 -177.877,-104.026 z"
         style="opacity:0.575;fill:#241c1c;fill-rule:evenodd;stroke-width:0.99999994"
         inkscape:connector-curvature="0" />
      <path
         transform="scale(0.26458333)"
         id="path5828"
         d="m 2090.9805,11008.041 a 175.99998,169.09803 60 0 1 150.6152,85.184 195.99999,203.99998 23.855769 0 0 -100.8516,104.025 195.99999,203.99998 23.855769 0 0 -16.3906,110.725 169.09802,175.99997 23.855769 0 1 10.2578,-30.338 169.09802,175.99997 23.855769 0 1 225.8321,-92.575 169.09802,175.99997 23.855769 0 1 89.6972,212.696 c -29.4679,23.139 -66.2055,36.842 -106.1406,36.842 h -536 c -0.5157,0 -1.0284,-0.02 -1.543,-0.02 a 175.99998,169.09803 29.999999 0 1 -61.0605,-230.06 175.99998,169.09803 29.999999 0 1 236.9707,-58.444 175.99998,169.09803 29.999999 0 1 25.957,18.32 203.99999,196 29.999999 0 0 -61.3984,-68.394 175.99998,169.09803 60 0 1 63.0742,-66.084 175.99998,169.09803 60 0 1 80.9805,-21.877 z"
         style="opacity:0.575;fill:#80b3ff;fill-rule:evenodd;stroke-width:0.99999994"
         inkscape:connector-curvature="0" />
      <path
         id="ellipse5715"
         d="m 510.6458,2932.8478 a 53.974997,51.858333 29.999999 0 0 -72.67289,17.9231 53.974997,51.858333 29.999999 0 0 20.81456,71.8981 53.974997,51.858333 29.999999 0 0 28.6636,7.4474 46.566661,44.74052 29.999999 0 1 -7.69023,-3.5576 46.566661,44.74052 29.999999 0 1 -17.9578,-62.0296 46.566661,44.74052 29.999999 0 1 62.69817,-15.4631 46.566661,44.74052 29.999999 0 1 6.86807,4.8473 53.974997,51.858333 29.999999 0 0 -20.72348,-21.0656 z"
         style="opacity:1;fill:#214478;fill-rule:evenodd;stroke-width:0.26458332"
         inkscape:connector-curvature="0" />
      <path
         transform="scale(0.26458333)"
         id="path5786"
         d="m 2046.0898,10914.619 a 203.99999,196 60 0 0 -88.0898,25.233 203.99999,196 60 0 0 -90.1016,121.326 203.99999,196 29.999999 0 1 62.1016,23.601 203.99999,196 29.999999 0 1 16.9258,11.223 175.99998,169.09803 60 0 1 63.0742,-66.084 175.99998,169.09803 60 0 1 234.4434,67.871 175.99998,169.09803 60 0 1 13.3203,28.846 203.99999,196 60 0 0 -28.0235,-108.115 203.99999,196 60 0 0 -183.6504,-103.901 z"
         style="opacity:1;fill:#214478;fill-rule:evenodd;stroke-width:0.99999994"
         inkscape:connector-curvature="0" />
      <path
         inkscape:connector-curvature="0"
         id="path5736"
         d="m 661.2611,3004.5524 a 51.858332,53.974996 23.855769 0 0 -25.59848,-70.3371 51.858332,53.974996 23.855769 0 0 -69.2573,28.3903 51.858332,53.974996 23.855769 0 0 -4.33667,29.2961 44.740519,46.56666 23.855769 0 1 2.7141,-8.0268 44.740519,46.56666 23.855769 0 1 59.75115,-24.4938 44.740519,46.56666 23.855769 0 1 22.08495,60.683 44.740519,46.56666 23.855769 0 1 -4.08436,7.3474 51.858332,53.974996 23.855769 0 0 18.72661,-22.8591 z"
         style="opacity:1;fill:#214478;fill-rule:evenodd;stroke-width:0.26458332" />
      <path
         transform="scale(0.26458333)"
         sodipodi:nodetypes="csssscssc"
         inkscape:connector-curvature="0"
         id="rect5791"
         d="m 1629.8711,11253.02 c -1.0609,8.158 0.1289,40.239 2.1289,48.46 23.9704,98.53 78.496,183.04 176,183.04 h 536 c 97.504,0 174.125,-81.636 174.125,-183.04 0,-8.471 -0.6852,-41.552 -1.7461,-49.71 -11.6389,89.509 -83.0203,182.83 -172.3789,182.83 h -536 c -89.3586,0 -166.49,-92.071 -178.1289,-181.58 z"
         style="opacity:1;fill:#214478;fill-rule:evenodd;stroke-width:1.38082099" />
      <path
         transform="scale(0.26458333)"
         id="path5826"
         d="m 1885.6934,11065.789 a 203.99999,196 29.999999 0 1 2.6953,0.783 203.99999,196 29.999999 0 0 -2.6953,-0.783 z"
         style="opacity:0.575;fill:#00ff00;fill-rule:evenodd;stroke-width:0.99999994"
         inkscape:connector-curvature="0" />
      <path
         transform="scale(0.26458333)"
         id="path5824"
         d="m 1902.9785,11071.898 a 203.99999,196 29.999999 0 1 5.3106,2.116 203.99999,196 29.999999 0 0 -5.3106,-2.116 z"
         style="opacity:0.575;fill:#00ff00;fill-rule:evenodd;stroke-width:0.99999994"
         inkscape:connector-curvature="0" />
      <path
         transform="scale(0.26458333)"
         id="path5813"
         d="m 1919.6562,11079.451 a 203.99999,196 29.999999 0 1 10.3438,5.328 203.99999,196 29.999999 0 0 -10.3438,-5.328 z"
         style="opacity:0.575;fill:#00ff00;fill-rule:evenodd;stroke-width:0.99999994"
         inkscape:connector-curvature="0" />
    </g>
    <g
       transform="translate(360.24956,9.1654217)"
       id="g5912">
      <path
         inkscape:connector-curvature="0"
         style="opacity:0.575;fill:#241c1c;fill-rule:evenodd;stroke-width:0.99999994"
         d="m 2331.9434,11073.902 a 196,203.99999 23.85577 0 0 -191.1973,123.348 196,203.99999 23.85577 0 0 -17.8477,85.895 196,203.99999 23.85577 0 1 233.6075,-61.198 196,203.99999 23.85577 0 1 114.5957,179.946 196,203.99999 23.85577 0 0 28.1543,-46.104 196,203.99999 23.85577 0 0 -96.75,-265.842 196,203.99999 23.85577 0 0 -70.5625,-16.045 z"
         id="path5890"
         transform="scale(0.26458333)" />
      <path
         inkscape:connector-curvature="0"
         style="opacity:0.575;fill:#241c1c;fill-rule:evenodd;stroke-width:0.99999994"
         d="m 1819.0098,11056.576 a 203.99999,196 30 0 0 -163.6797,95.944 203.99999,196 30 0 0 78.6699,271.74 203.99999,196 30 0 0 78.8027,26.383 203.99999,196 30 0 1 -1.9082,-194.887 203.99999,196 30 0 1 195.8672,-94.125 203.99999,196 30 0 0 -76.7617,-76.854 203.99999,196 30 0 0 -110.9902,-28.201 z"
         id="path5892"
         transform="scale(0.26458333)" />
      <path
         inkscape:connector-curvature="0"
         style="opacity:0.575;fill:#241c1c;fill-rule:evenodd;stroke-width:0.99999994"
         d="m 2051.8652,10914.494 a 203.99999,196 60 0 0 -93.8652,25.356 203.99999,196 60 0 0 -95.541,183.857 c 0.022,-0.194 0.038,-0.381 0.061,-0.576 l 28.9903,-2.83 c 0,0 2.1213,-3.535 18.3847,0 l 16.2637,3.537 -1.123,4.613 a 206.43782,199.21818 38.362932 0 1 71.7089,-70.601 206.43782,199.21818 38.362932 0 1 260.6446,52.045 203.99999,196 60 0 0 -27.6465,-91.375 203.99999,196 60 0 0 -177.877,-104.026 z"
         id="path5894"
         transform="scale(0.26458333)" />
      <path
         inkscape:connector-curvature="0"
         style="opacity:0.575;fill:#80b3ff;fill-rule:evenodd;stroke-width:0.99999994"
         d="m 2090.9805,11008.041 a 175.99998,169.09803 60 0 1 150.6152,85.184 195.99999,203.99998 23.855769 0 0 -100.8516,104.025 195.99999,203.99998 23.855769 0 0 -16.3906,110.725 169.09802,175.99997 23.855769 0 1 10.2578,-30.338 169.09802,175.99997 23.855769 0 1 225.8321,-92.575 169.09802,175.99997 23.855769 0 1 89.6972,212.696 c -29.4679,23.139 -66.2055,36.842 -106.1406,36.842 h -536 c -0.5157,0 -1.0284,-0.02 -1.543,-0.02 a 175.99998,169.09803 29.999999 0 1 -61.0605,-230.06 175.99998,169.09803 29.999999 0 1 236.9707,-58.444 175.99998,169.09803 29.999999 0 1 25.957,18.32 203.99999,196 29.999999 0 0 -61.3984,-68.394 175.99998,169.09803 60 0 1 63.0742,-66.084 175.99998,169.09803 60 0 1 80.9805,-21.877 z"
         id="path5896"
         transform="scale(0.26458333)" />
      <path
         inkscape:connector-curvature="0"
         style="opacity:1;fill:#214478;fill-rule:evenodd;stroke-width:0.26458332"
         d="m 510.6458,2932.8478 a 53.974997,51.858333 29.999999 0 0 -72.67289,17.9231 53.974997,51.858333 29.999999 0 0 20.81456,71.8981 53.974997,51.858333 29.999999 0 0 28.6636,7.4474 46.566661,44.74052 29.999999 0 1 -7.69023,-3.5576 46.566661,44.74052 29.999999 0 1 -17.9578,-62.0296 46.566661,44.74052 29.999999 0 1 62.69817,-15.4631 46.566661,44.74052 29.999999 0 1 6.86807,4.8473 53.974997,51.858333 29.999999 0 0 -20.72348,-21.0656 z"
         id="path5898" />
      <path
         inkscape:connector-curvature="0"
         style="opacity:1;fill:#214478;fill-rule:evenodd;stroke-width:0.99999994"
         d="m 2046.0898,10914.619 a 203.99999,196 60 0 0 -88.0898,25.233 203.99999,196 60 0 0 -90.1016,121.326 203.99999,196 29.999999 0 1 62.1016,23.601 203.99999,196 29.999999 0 1 16.9258,11.223 175.99998,169.09803 60 0 1 63.0742,-66.084 175.99998,169.09803 60 0 1 234.4434,67.871 175.99998,169.09803 60 0 1 13.3203,28.846 203.99999,196 60 0 0 -28.0235,-108.115 203.99999,196 60 0 0 -183.6504,-103.901 z"
         id="path5900"
         transform="scale(0.26458333)" />
      <path
         style="opacity:1;fill:#214478;fill-rule:evenodd;stroke-width:0.26458332"
         d="m 661.2611,3004.5524 a 51.858332,53.974996 23.855769 0 0 -25.59848,-70.3371 51.858332,53.974996 23.855769 0 0 -69.2573,28.3903 51.858332,53.974996 23.855769 0 0 -4.33667,29.2961 44.740519,46.56666 23.855769 0 1 2.7141,-8.0268 44.740519,46.56666 23.855769 0 1 59.75115,-24.4938 44.740519,46.56666 23.855769 0 1 22.08495,60.683 44.740519,46.56666 23.855769 0 1 -4.08436,7.3474 51.858332,53.974996 23.855769 0 0 18.72661,-22.8591 z"
         id="path5902"
         inkscape:connector-curvature="0" />
      <path
         style="opacity:1;fill:#214478;fill-rule:evenodd;stroke-width:1.38082099"
         d="m 1629.8711,11253.02 c -1.0609,8.158 0.1289,40.239 2.1289,48.46 23.9704,98.53 78.496,183.04 176,183.04 h 536 c 97.504,0 174.125,-81.636 174.125,-183.04 0,-8.471 -0.6852,-41.552 -1.7461,-49.71 -11.6389,89.509 -83.0203,182.83 -172.3789,182.83 h -536 c -89.3586,0 -166.49,-92.071 -178.1289,-181.58 z"
         id="path5904"
         inkscape:connector-curvature="0"
         sodipodi:nodetypes="csssscssc"
         transform="scale(0.26458333)" />
      <path
         inkscape:connector-curvature="0"
         style="opacity:0.575;fill:#00ff00;fill-rule:evenodd;stroke-width:0.99999994"
         d="m 1885.6934,11065.789 a 203.99999,196 29.999999 0 1 2.6953,0.783 203.99999,196 29.999999 0 0 -2.6953,-0.783 z"
         id="path5906"
         transform="scale(0.26458333)" />
      <path
         inkscape:connector-curvature="0"
         style="opacity:0.575;fill:#00ff00;fill-rule:evenodd;stroke-width:0.99999994"
         d="m 1902.9785,11071.898 a 203.99999,196 29.999999 0 1 5.3106,2.116 203.99999,196 29.999999 0 0 -5.3106,-2.116 z"
         id="path5908"
         transform="scale(0.26458333)" />
      <path
         inkscape:connector-curvature="0"
         style="opacity:0.575;fill:#00ff00;fill-rule:evenodd;stroke-width:0.99999994"
         d="m 1919.6562,11079.451 a 203.99999,196 29.999999 0 1 10.3438,5.328 203.99999,196 29.999999 0 0 -10.3438,-5.328 z"
         id="path5910"
         transform="scale(0.26458333)" />
    </g>
    <path
       style="opacity:0.07467532;fill:#241c1c;fill-rule:evenodd;stroke-width:0.26458332"
       d="m 903.13887,2896.9586 a 53.974997,51.858333 60 0 0 -0.76534,0.044 53.974997,51.858333 60 0 0 -0.76274,-0.011 53.974997,51.858333 60 0 0 -1.83348,0.1614 53.974997,51.858333 60 0 0 -2.60811,0.2288 53.974997,51.858333 60 0 0 -2.56108,0.4149 53.974997,51.858333 60 0 0 -2.56368,0.4948 53.974997,51.858333 60 0 0 -2.49545,0.6741 53.974997,51.858333 60 0 0 -2.49597,0.7562 53.974997,51.858333 60 0 0 -2.41226,0.9289 53.974997,51.858333 60 0 0 -2.39366,1.0057 53.974997,51.858333 60 0 0 -3.91705,1.9974 53.974997,51.858333 60 0 0 -0.0263,0.014 53.974997,51.858333 60 0 0 -23.82854,32.0635 53.974997,51.858333 60 0 0 -0.0108,0.037 53.974997,51.858333 30 0 0 -12.93514,-1.2171 53.974997,51.858333 30 0 0 -0.78134,0.062 53.974997,51.858333 29.999999 0 0 -2.63602,0.2071 53.974997,51.858333 30 0 0 -2.65668,0.2858 53.974997,51.858333 29.999999 0 0 -2.59572,0.4651 53.974997,51.858333 30 0 0 -2.60757,0.5461 53.974997,51.858333 29.999999 0 0 -2.52183,0.7178 53.974997,51.858333 30 0 0 -2.53111,0.8012 53.974997,51.858333 29.999999 0 0 -2.42464,0.962 53.974997,51.858333 30 0 0 -2.43242,1.0496 53.974997,51.858333 29.999999 0 0 -2.30735,1.1994 53.974997,51.858333 30 0 0 -2.2991,1.2827 53.974997,51.858333 29.999999 0 0 -2.17556,1.4298 53.974997,51.858333 30 0 0 -2.14199,1.5007 53.974997,51.858333 29.999999 0 0 -2.00816,1.6378 53.974997,51.858333 30 0 0 -1.97662,1.7134 53.974997,51.858333 29.999999 0 0 -1.81695,1.8243 53.974997,51.858333 30 0 0 -1.79213,1.9119 53.974997,51.858333 29.999999 0 0 -1.61694,2.0016 53.974997,51.858333 30 0 0 -1.57666,2.0762 53.974997,51.858333 29.999999 0 0 -2.39778,3.6954 53.974997,51.858333 30 0 0 -0.0104,0.016 53.974997,51.858333 30 0 0 -2.3549,4.6183 53.974997,51.858333 29.999999 0 0 -1.86446,4.8421 53.974997,51.858333 30 0 0 -2.48925,15.3747 53.974997,51.858333 29.999999 0 0 0.12607,2.8406 c -0.055,-0.3617 -0.10644,-0.7237 -0.15349,-1.0851 -0.28069,2.1585 0.0341,10.6466 0.5633,12.822 6.34217,26.0694 20.76871,48.4291 46.56667,48.4291 H 980.4329 c 25.7979,0 46.0706,-21.5993 46.0706,-48.4291 0,-1.8484 -0.1245,-8.0769 -0.3251,-11.4319 a 51.858333,53.974997 23.85577 0 0 -0.049,-0.7839 c -0.028,-0.3757 -0.058,-0.7014 -0.088,-0.9369 -0,0.027 -0.01,0.053 -0.011,0.08 a 51.858333,53.974997 23.85577 0 0 -18.2258,-35.4865 51.858333,53.974997 23.85577 0 0 -5e-4,0 51.85833,53.974994 23.855769 0 0 -4.1475,-3.1263 51.858333,53.974997 23.85577 0 0 -6e-4,0 51.85833,53.974994 23.855769 0 0 -4.44257,-2.6757 51.858333,53.974997 23.85577 0 0 -5e-4,0 51.85833,53.974994 23.855769 0 0 -3.30007,-1.6071 51.85833,53.974994 23.855769 0 0 -4.84362,-1.8476 51.858333,53.974997 23.85577 0 0 -5.3e-4,0 51.858333,53.974997 23.85577 0 0 -13.82551,-2.3976 51.858333,53.974997 23.85577 0 0 -0.7674,0.015 51.85833,53.974994 23.855769 0 0 -2.5895,0.051 51.858333,53.974997 23.85577 0 0 -2.6267,0.1296 51.85833,53.974994 23.855769 0 0 -2.58175,0.3162 51.858333,53.974997 23.85577 0 0 -2.60398,0.3979 51.85833,53.974994 23.855769 0 0 -2.54818,0.5795 51.858333,53.974997 23.85577 0 0 -2.55902,0.6614 51.85833,53.974994 23.855769 0 0 -2.49751,0.8401 51.858333,53.974997 23.85577 0 0 -1.68053,0.5649 53.974997,51.858333 60 0 0 -0.48318,-2.2106 53.974997,51.858333 60 0 0 -0.66352,-2.8811 53.974997,51.858333 60 0 0 -0.75499,-2.3849 53.974997,51.858333 60 0 0 -0.9095,-2.7176 53.974997,51.858333 60 0 0 -1.01026,-2.3698 53.974997,51.858333 60 0 0 -1.18031,-2.6485 53.974997,51.858333 60 0 0 -1.55752,-2.9462 53.974997,51.858333 60 0 0 -0.0269,-0.05 53.974997,51.858333 60 0 0 -14.05496,-16.1562 53.974997,51.858333 60 0 0 -4.3811,-3.0798 53.974997,51.858333 60 0 0 -9.51106,-4.7797 53.974997,51.858333 60 0 0 -5.03327,-1.652 53.974997,51.858333 60 0 0 -14.08287,-1.8558 z m 50.02122,47.0122 a 54.620006,52.709809 38.362932 0 1 0.0124,0.011 46.566661,44.74052 60 0 1 0.16174,0.2593 46.566661,44.74052 60 0 0 -0.17415,-0.2702 z m -8.7426,5.6322 a 51.858333,53.974997 23.85577 0 0 -0.27027,0.1939 51.85833,53.974994 23.855769 0 1 0.27027,-0.1939 z m -4.00648,3.271 a 51.85833,53.974994 23.855769 0 0 -0.0791,0.074 51.858333,53.974997 23.85577 0 0 -0.39999,0.3508 51.85833,53.974994 23.855769 0 1 0.47905,-0.4244 z m -3.71554,3.6677 a 51.85833,53.974994 23.855769 0 0 -0.17466,0.1974 51.858333,53.974997 23.85577 0 0 -0.44442,0.4733 51.85833,53.974994 23.855769 0 1 0.61908,-0.6707 z m -3.35431,4.0013 a 51.85833,53.974994 23.855769 0 0 -0.24702,0.3395 51.858333,53.974997 23.85577 0 0 -0.48265,0.6257 51.85833,53.974994 23.855769 0 1 0.72967,-0.9652 z m -42.17882,1.7997 a 53.974997,51.858333 29.999999 0 1 0.4563,0.7308 46.566661,44.74052 29.999999 0 0 -0.005,0 53.974997,51.858333 29.999999 0 0 -0.45112,-0.7268 z m 39.21104,2.5008 a 51.85833,53.974994 23.855769 0 0 -0.29403,0.4985 51.858333,53.974997 23.85577 0 0 -0.4961,0.7908 51.85833,53.974994 23.855769 0 1 0.79013,-1.2893 z m -2.72955,4.8834 a 51.85833,53.974994 23.855769 0 0 -0.98859,2.0442 51.85833,53.974994 23.855769 0 0 -1.93733,5.035 51.85833,53.974994 23.855769 0 0 -2.37919,10.4939 51.85833,53.974994 23.855769 0 1 2.37919,-10.4939 51.85833,53.974994 23.855769 0 1 1.93683,-5.035 51.85833,53.974994 23.855769 0 1 0.98909,-2.0442 z m -5.62086,28.2824 a 51.85833,53.974994 23.855769 0 0 0.29559,3.0562 44.740517,46.566658 23.855769 0 0 -5e-4,0 51.85833,53.974994 23.855769 0 1 -0.29509,-3.0578 z m 88.88603,9.8637 a 51.858333,53.974997 23.85577 0 1 0.05,0.1238 44.740517,46.566658 23.855769 0 1 -1.2573,12.6299 c -0.021,0.022 -0.042,0.044 -0.062,0.067 a 44.740517,46.566658 23.855769 0 0 1.2697,-12.8204 z m -173.49118,26.1278 a 46.566661,44.74052 29.999999 0 0 0.79013,0.5594 c 0.13615,0 0.27178,0.01 0.40825,0.01 -0.13708,0 -0.27347,-0.01 -0.41032,-0.01 a 46.566661,44.74052 29.999999 0 1 -0.75861,-0.4876 53.974997,51.858333 30 0 1 -0.0294,-0.075 z"
       id="path5914"
       inkscape:connector-curvature="0" />
    <ellipse
       style="opacity:0.43200001;fill:#c8beb7;fill-rule:evenodd;stroke-width:0.20802861"
       id="path6053"
       cx="911.49603"
       cy="3090.9819"
       rx="117.56107"
       ry="6.3610148" />
  </g>
</svg>
