<?xml version="1.0" encoding="UTF-8" standalone="no"?>
<!-- Created with Inkscape (http://www.inkscape.org/) -->

<svg
   xmlns:dc="http://purl.org/dc/elements/1.1/"
   xmlns:cc="http://creativecommons.org/ns#"
   xmlns:rdf="http://www.w3.org/1999/02/22-rdf-syntax-ns#"
   xmlns:svg="http://www.w3.org/2000/svg"
   xmlns="http://www.w3.org/2000/svg"
   xmlns:sodipodi="http://sodipodi.sourceforge.net/DTD/sodipodi-0.dtd"
   xmlns:inkscape="http://www.inkscape.org/namespaces/inkscape"
   width="210mm"
   height="297mm"
   viewBox="0 0 210 297"
   version="1.1"
   id="svg1549"
   inkscape:version="0.92.5 (0.92.5+68)"
   sodipodi:docname="custome.svg">
  <defs
     id="defs1543" />
  <sodipodi:namedview
     id="base"
     pagecolor="#ffffff"
     bordercolor="#666666"
     borderopacity="1.0"
     inkscape:pageopacity="0.0"
     inkscape:pageshadow="2"
     inkscape:zoom="0.5"
     inkscape:cx="-428.72704"
     inkscape:cy="795.3302"
     inkscape:document-units="mm"
     inkscape:current-layer="layer1"
     showgrid="false"
     showborder="false"
     inkscape:object-paths="false"
     inkscape:window-width="1920"
     inkscape:window-height="966"
     inkscape:window-x="0"
     inkscape:window-y="27"
     inkscape:window-maximized="1"
     inkscape:snap-smooth-nodes="false"
     inkscape:snap-intersection-paths="false"
     inkscape:snap-nodes="true"
     inkscape:object-nodes="false" />
  <metadata
     id="metadata1546">
    <rdf:RDF>
      <cc:Work
         rdf:about="">
        <dc:format>image/svg+xml</dc:format>
        <dc:type
           rdf:resource="http://purl.org/dc/dcmitype/StillImage" />
        <dc:title></dc:title>
      </cc:Work>
    </rdf:RDF>
  </metadata>
  <g
     inkscape:label="Layer 1"
     inkscape:groupmode="layer"
     id="layer1">
    <path
       style="opacity:1;fill:none;fill-rule:evenodd;stroke:#00ff00;stroke-width:38.31583405;stroke-linecap:round;stroke-linejoin:bevel;stroke-miterlimit:4;stroke-dasharray:none;stroke-opacity:1"
       d="M -692.46484 -87.785156 C -725.41462 -87.785156 -758.36408 -75.214058 -783.50391 -50.074219 C -806.14402 -27.434122 -818.58475 1.5407581 -820.83594 31.144531 C -849.74694 33.791418 -877.93497 46.177165 -900.06836 68.310547 C -941.83699 110.07917 -948.90135 173.40527 -921.27344 222.47266 C -951.12186 271.96978 -944.69966 337.21639 -901.99023 379.92578 C -879.34769 402.56834 -850.3691 415.00861 -820.76172 417.25781 C -818.33149 446.55302 -805.91799 475.17576 -783.50391 497.58984 C -741.65679 539.43696 -678.17389 546.44724 -629.06836 518.63672 C -579.66842 547.94505 -514.88366 541.36221 -472.40039 498.87891 C -449.6468 476.12533 -437.191 446.97346 -435.03125 417.21484 C -405.60544 414.8597 -376.83566 402.43525 -354.32617 379.92578 C -312.55755 338.15715 -305.49123 274.83106 -333.11914 225.76367 C -303.27073 176.26655 -309.69296 111.01993 -352.40234 68.310547 C -375.44454 45.26833 -405.04849 32.793706 -435.19922 30.871094 C -437.76268 1.8104997 -450.15793 -26.546611 -472.40039 -48.789062 C -497.54026 -73.928915 -530.48968 -86.498047 -563.43945 -86.498047 C -585.33743 -86.498047 -607.23231 -80.939537 -626.83789 -69.835938 C -647.0046 -81.800748 -669.73388 -87.785156 -692.46484 -87.785156 z "
       transform="scale(0.26458333)"
       id="path2141" />
  </g>
</svg>
