<?xml version="1.0" encoding="UTF-8" standalone="no"?>
<!-- Created with Inkscape (http://www.inkscape.org/) -->

<svg
   xmlns:dc="http://purl.org/dc/elements/1.1/"
   xmlns:cc="http://creativecommons.org/ns#"
   xmlns:rdf="http://www.w3.org/1999/02/22-rdf-syntax-ns#"
   xmlns:svg="http://www.w3.org/2000/svg"
   xmlns="http://www.w3.org/2000/svg"
   xmlns:sodipodi="http://sodipodi.sourceforge.net/DTD/sodipodi-0.dtd"
   xmlns:inkscape="http://www.inkscape.org/namespaces/inkscape"
   width="210mm"
   height="297mm"
   viewBox="0 0 210 297"
   version="1.1"
   id="svg8"
   inkscape:version="0.92.5 (0.92.5+68)"
   sodipodi:docname="infinite.svg">
  <defs
     id="defs2" />
  <sodipodi:namedview
     id="base"
     pagecolor="#ffffff"
     bordercolor="#666666"
     borderopacity="1.0"
     inkscape:pageopacity="0.0"
     inkscape:pageshadow="2"
     inkscape:zoom="0.35355339"
     inkscape:cx="175.00172"
     inkscape:cy="1133.3906"
     inkscape:document-units="px"
     inkscape:current-layer="layer1"
     showgrid="false"
     showborder="false"
     inkscape:object-nodes="true"
     inkscape:window-width="960"
     inkscape:window-height="966"
     inkscape:window-x="960"
     inkscape:window-y="27"
     inkscape:window-maximized="0" />
  <metadata
     id="metadata5">
    <rdf:RDF>
      <cc:Work
         rdf:about="">
        <dc:format>image/svg+xml</dc:format>
        <dc:type
           rdf:resource="http://purl.org/dc/dcmitype/StillImage" />
        <dc:title></dc:title>
      </cc:Work>
    </rdf:RDF>
  </metadata>
  <g
     inkscape:label="Layer 1"
     inkscape:groupmode="layer"
     id="layer1">
    <path
       style="color:#000000;font-style:normal;font-variant:normal;font-weight:normal;font-stretch:normal;font-size:medium;line-height:normal;font-family:sans-serif;font-variant-ligatures:normal;font-variant-position:normal;font-variant-caps:normal;font-variant-numeric:normal;font-variant-alternates:normal;font-feature-settings:normal;text-indent:0;text-align:start;text-decoration:none;text-decoration-line:none;text-decoration-style:solid;text-decoration-color:#000000;letter-spacing:normal;word-spacing:normal;text-transform:none;writing-mode:lr-tb;direction:ltr;text-orientation:mixed;dominant-baseline:auto;baseline-shift:baseline;text-anchor:start;white-space:normal;shape-padding:0;clip-rule:nonzero;display:inline;overflow:visible;visibility:visible;opacity:1;isolation:auto;mix-blend-mode:normal;color-interpolation:sRGB;color-interpolation-filters:linearRGB;solid-color:#000000;solid-opacity:1;vector-effect:none;fill:#ff0000;fill-opacity:1;fill-rule:nonzero;stroke:none;stroke-width:19.84375;stroke-linecap:round;stroke-linejoin:round;stroke-miterlimit:4;stroke-dasharray:none;stroke-dashoffset:0;stroke-opacity:1;color-rendering:auto;image-rendering:auto;shape-rendering:auto;text-rendering:auto;enable-background:accumulate"
       d="m 62.274155,8.8407031 c -13.867519,0 -27.81501,5.3156069 -38.353214,15.8538109 -21.0760803,21.076082 -21.0760789,55.6288 0,76.704876 21.076345,21.07635 55.630595,21.07635 76.706949,0 4.64958,-4.649577 10.33283,-10.332826 16.83773,-16.837726 l 16.83773,16.837736 c 21.07635,21.07633 55.63111,21.07635 76.70746,-1e-5 21.07607,-21.076071 21.07607,-55.628788 0,-76.704876 C 200.4726,14.156218 186.52461,8.8407052 172.65708,8.8407017 158.78957,8.8407029 144.84156,14.156324 134.30335,24.694517 L 117.46562,41.53225 100.62788,24.694515 C 90.089679,14.156311 76.141673,8.8407031 62.274155,8.8407031 Z m -10e-7,30.3593859 c 6.086989,0 12.11047,2.28006 16.838248,7.007841 l 16.837707,16.839829 c -5.707443,5.707443 -12.188102,12.188611 -16.837735,16.838244 -9.455284,9.455284 -24.220702,9.455288 -33.675976,0 -9.454941,-9.454927 -9.45494,-24.223106 -3e-6,-33.678043 4.727781,-4.727782 10.750748,-7.007844 16.837733,-7.007845 z m 110.382926,0 c 6.087,1e-6 12.10994,2.280052 16.83773,7.007844 9.45492,9.454928 9.45492,24.223124 0,33.678043 -9.45529,9.455292 -24.22017,9.455288 -33.67546,-10e-7 -4.64963,-4.64963 -11.1308,-11.130803 -16.83825,-16.838248 l 16.83831,-16.839731 c 4.72779,-4.727787 10.75076,-7.007839 16.83773,-7.007843 z"
       id="path4559"
       inkscape:connector-curvature="0" />
    <path
       style="color:#000000;font-style:normal;font-variant:normal;font-weight:normal;font-stretch:normal;font-size:medium;line-height:normal;font-family:sans-serif;font-variant-ligatures:normal;font-variant-position:normal;font-variant-caps:normal;font-variant-numeric:normal;font-variant-alternates:normal;font-feature-settings:normal;text-indent:0;text-align:start;text-decoration:none;text-decoration-line:none;text-decoration-style:solid;text-decoration-color:#000000;letter-spacing:normal;word-spacing:normal;text-transform:none;writing-mode:lr-tb;direction:ltr;text-orientation:mixed;dominant-baseline:auto;baseline-shift:baseline;text-anchor:start;white-space:normal;shape-padding:0;clip-rule:nonzero;display:inline;overflow:visible;visibility:visible;opacity:1;isolation:auto;mix-blend-mode:normal;color-interpolation:sRGB;color-interpolation-filters:linearRGB;solid-color:#000000;solid-opacity:1;vector-effect:none;fill:#ffffff;fill-opacity:1;fill-rule:nonzero;stroke:none;stroke-width:10.58333302;stroke-linecap:round;stroke-linejoin:round;stroke-miterlimit:4;stroke-dasharray:none;stroke-dashoffset:0;stroke-opacity:1;color-rendering:auto;image-rendering:auto;shape-rendering:auto;text-rendering:auto;enable-background:accumulate"
       d="M 203.9951,31.710096 C 195.36368,23.078688 184.01036,18.76261 172.65738,18.76261 c -11.35297,1e-6 -22.70703,4.31608 -31.33845,12.947486 l -16.83761,16.837614 7.48391,7.483913 16.83871,-16.839442 c 6.60922,-6.609199 15.23114,-9.913866 23.85344,-9.913872 8.62219,9.8e-5 17.24396,3.305119 23.85308,9.914238 13.2184,13.21841 13.2184,34.490666 0,47.709072 -13.21843,13.218421 -34.48846,13.218421 -47.70688,-10e-7 -6.58694,-6.586932 -19.68479,-19.684788 -23.85381,-23.853805 l -7.48245,-7.484643 v -0.0015 l -0.002,0.0018 L 93.612055,31.710097 C 84.980643,23.078684 73.627308,18.762611 62.274337,18.762611 c -11.352972,1e-6 -22.706308,4.316075 -31.337718,12.947486 -17.262821,17.262824 -17.262827,45.411158 2e-6,62.673972 17.262819,17.262831 45.412975,17.262461 62.675797,-3.65e-4 l 16.837612,-16.837615 -7.48354,-7.483547 c -5.707459,5.707609 -12.188471,12.189201 -16.838348,16.839078 -13.21842,13.21842 -34.489195,13.21841 -47.70761,0 -13.218415,-13.218415 -13.218048,-34.491025 3.65e-4,-47.709438 6.609208,-6.609208 15.231143,-9.913873 23.85344,-9.913871 8.622301,-2e-6 17.244597,3.305028 23.853805,9.914236 l 23.853078,23.855266 7.48427,7.482815 c 4.16904,4.169037 17.2665,17.266501 23.85344,23.853441 17.26283,17.262821 45.4137,17.262471 62.67653,-3.65e-4 17.26281,-17.262819 17.26246,-45.410775 -3.6e-4,-62.673608 z"
       id="path4545"
       inkscape:connector-curvature="0" />
    <path
       inkscape:connector-curvature="0"
       id="path4571"
       d="M 111.85268,90.173061 90.337264,68.659062 95.95014,63.046186 117.46562,84.561664 Z"
       style="opacity:0.51599995;fill:#000000;stroke:none;stroke-width:0.26458332px;stroke-linecap:butt;stroke-linejoin:miter;stroke-opacity:1"
       sodipodi:nodetypes="ccccc" />
    <path
       sodipodi:nodetypes="ccccc"
       style="opacity:0.51599995;fill:#000000;stroke:none;stroke-width:0.26458332px;stroke-linecap:butt;stroke-linejoin:miter;stroke-opacity:1"
       d="m 138.98103,63.04625 -21.51541,-21.514 5.61287,-5.612876 21.51548,21.515478 z"
       id="path4573"
       inkscape:connector-curvature="0" />
  </g>
</svg>
