<?xml version="1.0" encoding="UTF-8" standalone="no"?>
<!-- Created with Inkscape (http://www.inkscape.org/) -->

<svg
   xmlns:dc="http://purl.org/dc/elements/1.1/"
   xmlns:cc="http://creativecommons.org/ns#"
   xmlns:rdf="http://www.w3.org/1999/02/22-rdf-syntax-ns#"
   xmlns:svg="http://www.w3.org/2000/svg"
   xmlns="http://www.w3.org/2000/svg"
   xmlns:xlink="http://www.w3.org/1999/xlink"
   xmlns:sodipodi="http://sodipodi.sourceforge.net/DTD/sodipodi-0.dtd"
   xmlns:inkscape="http://www.inkscape.org/namespaces/inkscape"
   width="512"
   height="512"
   viewBox="0 0 135.46666 135.46667"
   version="1.1"
   id="svg939"
   inkscape:version="0.92.5 (0.92.5+68)"
   sodipodi:docname="scatter_rain.svg">
  <defs
     id="defs933">
    <linearGradient
       inkscape:collect="always"
       xlink:href="#linearGradient8946"
       id="linearGradient8948"
       x1="62.634983"
       y1="256.15015"
       x2="64.516212"
       y2="186.98048"
       gradientUnits="userSpaceOnUse" />
    <linearGradient
       inkscape:collect="always"
       id="linearGradient8946">
      <stop
         style="stop-color:#4d4d4d;stop-opacity:1;"
         offset="0"
         id="stop8942" />
      <stop
         style="stop-color:#4d4d4d;stop-opacity:0;"
         offset="1"
         id="stop8944" />
    </linearGradient>
    <filter
       inkscape:collect="always"
       style="color-interpolation-filters:sRGB"
       id="filter8594"
       x="-0.07616964"
       width="1.1523393"
       y="-0.096659563"
       height="1.1933191">
      <feGaussianBlur
         inkscape:collect="always"
         stdDeviation="2.3628532"
         id="feGaussianBlur8596" />
    </filter>
  </defs>
  <sodipodi:namedview
     id="base"
     pagecolor="#ffffff"
     bordercolor="#666666"
     borderopacity="1.0"
     inkscape:pageopacity="0.0"
     inkscape:pageshadow="2"
     inkscape:zoom="0.35"
     inkscape:cx="18.571429"
     inkscape:cy="102.85714"
     inkscape:document-units="px"
     inkscape:current-layer="layer1"
     showgrid="false"
     units="px"
     inkscape:window-width="1920"
     inkscape:window-height="966"
     inkscape:window-x="0"
     inkscape:window-y="27"
     inkscape:window-maximized="1" />
  <metadata
     id="metadata936">
    <rdf:RDF>
      <cc:Work
         rdf:about="">
        <dc:format>image/svg+xml</dc:format>
        <dc:type
           rdf:resource="http://purl.org/dc/dcmitype/StillImage" />
        <dc:title></dc:title>
      </cc:Work>
    </rdf:RDF>
  </metadata>
  <g
     inkscape:label="Layer 1"
     inkscape:groupmode="layer"
     id="layer1"
     transform="translate(0,-161.53331)">
    <g
       id="g1602"
       transform="translate(-1.6997135,-3.1940573)">
      <g
         transform="translate(1.699716,-3.3414)"
         id="layer1-3"
         inkscape:label="Layer 1">
        <g
           id="g8966">
          <path
             inkscape:connector-curvature="0"
             id="path6741"
             d="m 70.528364,196.19993 a 19.719105,18.478041 0 0 0 -18.67432,12.59664 12.160762,11.395399 0 0 0 -5.18727,-1.1038 12.160762,11.395399 0 0 0 -12.16102,11.39517 12.160762,11.395399 0 0 0 0.100253,1.34565 19.10977,17.907057 0 0 0 -10.523389,15.99334 19.10977,17.907057 0 0 0 1.554427,7.06262 c 2.078665,6.61006 8.236487,11.37863 15.550469,11.37863 h 39.82341 c 8.05401,0 14.702992,-5.78316 16.049672,-13.43949 a 19.719105,18.478041 0 0 0 1.47226,-6.9727 19.719105,18.478041 0 0 0 -8.867162,-15.41301 19.719105,18.478041 0 0 0 0.58188,-4.36511 19.719105,18.478041 0 0 0 -19.71921,-18.47794 z"
             style="opacity:0.74599998;fill:url(#linearGradient8948);fill-opacity:1;fill-rule:evenodd;stroke-width:0.34204319;filter:url(#filter8594)"
             transform="matrix(0.99751255,0,0,1.035499,6.5780907,-4.2736171)" />
          <path
             style="fill:#ffffff;fill-rule:evenodd;stroke-width:0.34204319"
             d="m 76.953955,198.79863 a 19.719105,18.478041 0 0 0 -18.67432,12.59664 12.160762,11.395399 0 0 0 -5.18727,-1.1038 12.160762,11.395399 0 0 0 -12.16102,11.39517 12.160762,11.395399 0 0 0 0.100253,1.34565 19.10977,17.907057 0 0 0 -10.523389,15.99334 19.10977,17.907057 0 0 0 1.554427,7.06262 c 2.078665,6.61006 8.236487,11.37863 15.550469,11.37863 h 39.82341 c 8.05401,0 14.702995,-5.78316 16.049675,-13.43949 a 19.719105,18.478041 0 0 0 1.47226,-6.9727 19.719105,18.478041 0 0 0 -8.867165,-15.41301 19.719105,18.478041 0 0 0 0.58188,-4.36511 19.719105,18.478041 0 0 0 -19.71921,-18.47794 z"
             id="rect891"
             inkscape:connector-curvature="0" />
        </g>
      </g>
      <rect
         transform="rotate(30)"
         ry="1.5119048"
         y="189.03183"
         x="166.43723"
         height="10.205358"
         width="3.0238097"
         id="rect2108"
         style="fill:#666666;fill-rule:evenodd;stroke-width:0.26458332" />
      <rect
         style="fill:#666666;fill-rule:evenodd;stroke-width:0.26458332"
         id="rect2110"
         width="3.0238097"
         height="10.205358"
         x="166.63603"
         y="204.19278"
         ry="1.5119048"
         transform="rotate(30)" />
      <rect
         style="fill:#666666;fill-rule:evenodd;stroke-width:0.26458332"
         id="rect2116"
         width="3.0238097"
         height="10.205358"
         x="182.83121"
         y="185.67705"
         ry="1.5119048"
         transform="rotate(30)" />
      <rect
         transform="rotate(30)"
         ry="1.5119048"
         y="200.838"
         x="183.03001"
         height="10.205358"
         width="3.0238097"
         id="rect2118"
         style="fill:#666666;fill-rule:evenodd;stroke-width:0.26458332" />
      <rect
         transform="rotate(30)"
         ry="1.5119048"
         y="173.15683"
         x="193.93353"
         height="10.205358"
         width="3.0238097"
         id="rect2128"
         style="fill:#666666;fill-rule:evenodd;stroke-width:0.26458332" />
      <rect
         style="fill:#666666;fill-rule:evenodd;stroke-width:0.26458332"
         id="rect2130"
         width="3.0238097"
         height="10.205358"
         x="194.13234"
         y="188.31778"
         ry="1.5119048"
         transform="rotate(30)" />
      <rect
         style="fill:#666666;fill-rule:evenodd;stroke-width:0.26458332"
         id="rect2134"
         width="3.0238097"
         height="10.205358"
         x="209.53377"
         y="168.42723"
         ry="1.5119048"
         transform="rotate(30)" />
      <rect
         transform="rotate(30)"
         ry="1.5119048"
         y="183.58818"
         x="209.73257"
         height="10.205358"
         width="3.0238097"
         id="rect2136"
         style="fill:#666666;fill-rule:evenodd;stroke-width:0.26458332" />
    </g>
  </g>
</svg>
